<svg width="3000" height="1000" viewBox="0 0 3000 1000" fill="none" xmlns="http://www.w3.org/2000/svg">
<g clip-path="url(#clip0_346_11)">
<path d="M1220.83 826.84H1104.57V193.977H1220.83V593.057L1392.89 374.915H1525.64L1375.56 563.464L1525.64 826.84H1392.89L1301.15 662.388L1220.83 768.922V826.84Z" fill="white"/>
<path d="M2008.84 596.439C2008.84 630.259 2002.78 661.825 1990.67 691.136C1978.55 720.165 1962.06 745.389 1941.2 766.809C1920.35 787.946 1895.83 804.716 1867.64 817.116C1839.74 829.235 1809.73 835.295 1777.6 835.295C1745.75 835.295 1715.73 829.235 1687.55 817.116C1659.65 804.716 1635.13 787.946 1613.99 766.809C1593.14 745.389 1576.65 720.165 1564.53 691.136C1552.41 661.825 1546.35 630.259 1546.35 596.439C1546.35 562.055 1552.41 530.207 1564.53 500.896C1576.65 471.585 1593.14 446.361 1613.99 425.223C1635.13 403.804 1659.65 387.034 1687.55 374.915C1715.73 362.796 1745.75 356.737 1777.6 356.737C1809.73 356.737 1839.74 362.515 1867.64 374.07C1895.83 385.343 1920.35 401.549 1941.2 422.687C1962.06 443.543 1978.55 468.767 1990.67 498.36C2002.78 527.671 2008.84 560.364 2008.84 596.439ZM1892.59 596.439C1892.59 577.837 1889.49 561.068 1883.29 546.131C1877.37 530.912 1869.19 517.947 1858.77 507.238C1848.34 496.246 1836.08 487.932 1821.99 482.295C1808.18 476.376 1793.38 473.417 1777.6 473.417C1761.81 473.417 1746.88 476.376 1732.79 482.295C1718.98 487.932 1706.86 496.246 1696.43 507.238C1686.28 517.947 1678.25 530.912 1672.33 546.131C1666.41 561.068 1663.45 577.837 1663.45 596.439C1663.45 613.913 1666.41 630.118 1672.33 645.055C1678.25 659.993 1686.28 672.957 1696.43 683.949C1706.86 694.94 1718.98 703.677 1732.79 710.16C1746.88 716.36 1761.81 719.46 1777.6 719.46C1793.38 719.46 1808.18 716.501 1821.99 710.582C1836.08 704.664 1848.34 696.35 1858.77 685.64C1869.19 674.93 1877.37 661.966 1883.29 646.746C1889.49 631.527 1892.59 614.758 1892.59 596.439ZM1671.06 320.38V231.179H1884.98V320.38H1671.06Z" fill="white"/>
<path d="M2181.75 999.324V883.066L2246.01 883.912C2257.28 883.912 2268.13 882.08 2278.56 878.416C2288.99 874.752 2298.57 869.679 2307.31 863.197C2316.33 856.714 2324.22 848.964 2330.98 839.945C2337.75 831.208 2343.24 821.626 2347.47 811.198C2334.79 816.553 2321.82 821.908 2308.58 827.263C2295.61 832.617 2282.51 835.295 2269.26 835.295C2241.36 835.295 2215.15 830.363 2190.63 820.498C2166.11 810.634 2144.55 796.683 2125.95 778.646C2107.63 760.326 2093.11 738.202 2082.4 712.273C2071.98 686.063 2066.76 656.752 2066.76 624.34V374.07H2181.75V624.34C2181.75 640.405 2184.01 654.497 2188.51 666.616C2193.31 678.453 2199.65 688.458 2207.54 696.631C2215.43 704.523 2224.59 710.441 2235.02 714.387C2245.73 718.333 2257.14 720.306 2269.26 720.306C2281.1 720.306 2292.23 717.628 2302.66 712.273C2313.37 706.637 2322.67 699.309 2330.56 690.29C2338.45 681.271 2344.65 671.125 2349.16 659.852C2353.67 648.297 2355.93 636.459 2355.93 624.34V374.07H2472.18V769.768C2471.9 801.615 2465.7 831.49 2453.58 859.392C2441.46 887.294 2424.83 911.672 2403.7 932.528C2382.84 953.384 2358.46 969.872 2330.56 981.991C2302.66 994.11 2272.78 1000.17 2240.94 1000.17L2181.75 999.324Z" fill="white"/>
<path d="M2998.09 596.439C2998.09 630.259 2992.03 661.825 2979.91 691.136C2967.79 720.165 2951.3 745.389 2930.45 766.809C2909.59 787.946 2885.07 804.716 2856.89 817.116C2828.99 829.235 2798.97 835.295 2766.84 835.295C2734.99 835.295 2704.98 829.235 2676.8 817.116C2648.89 804.716 2624.37 787.946 2603.24 766.809C2582.38 745.389 2565.89 720.165 2553.77 691.136C2541.66 661.825 2535.6 630.259 2535.6 596.439C2535.6 562.055 2541.66 530.207 2553.77 500.896C2565.89 471.585 2582.38 446.361 2603.24 425.223C2624.37 403.804 2648.89 387.034 2676.8 374.915C2704.98 362.796 2734.99 356.737 2766.84 356.737C2798.97 356.737 2828.99 362.515 2856.89 374.07C2885.07 385.343 2909.59 401.549 2930.45 422.687C2951.3 443.543 2967.79 468.767 2979.91 498.36C2992.03 527.671 2998.09 560.364 2998.09 596.439ZM2881.83 596.439C2881.83 577.837 2878.73 561.068 2872.53 546.131C2866.61 530.912 2858.44 517.947 2848.01 507.238C2837.58 496.246 2825.32 487.932 2811.23 482.295C2797.42 476.376 2782.63 473.417 2766.84 473.417C2751.06 473.417 2736.12 476.376 2722.03 482.295C2708.22 487.932 2696.1 496.246 2685.67 507.238C2675.53 517.947 2667.5 530.912 2661.58 546.131C2655.66 561.068 2652.7 577.837 2652.7 596.439C2652.7 613.913 2655.66 630.118 2661.58 645.055C2667.5 659.993 2675.53 672.957 2685.67 683.949C2696.1 694.94 2708.22 703.677 2722.03 710.16C2736.12 716.36 2751.06 719.46 2766.84 719.46C2782.63 719.46 2797.42 716.501 2811.23 710.582C2825.32 704.664 2837.58 696.35 2848.01 685.64C2858.44 674.93 2866.61 661.966 2872.53 646.746C2878.73 631.527 2881.83 614.758 2881.83 596.439ZM2660.31 320.38V231.179H2874.22V320.38H2660.31Z" fill="white"/>
<path d="M558.862 293.807L718.565 494.461L318.895 884.301L86.7923 600.765L558.862 293.807Z" fill="#D58A9F"/>
<path fill-rule="evenodd" clip-rule="evenodd" d="M318.311 894.712L76.3602 599.144L560.387 284.411L728.043 495.057L318.311 894.712ZM709.086 493.865L557.335 303.203L97.2232 602.386L319.477 873.891L709.086 493.865Z" fill="white"/>
<path d="M235.549 696.784L261.512 441.65L819.823 442.046L787.737 807.059L235.549 696.784Z" fill="#950C2A"/>
<path fill-rule="evenodd" clip-rule="evenodd" d="M827.519 435.006L794.072 815.508L227.897 702.44L255.152 434.601L827.519 435.006ZM267.881 448.7L243.211 691.129L781.413 798.611L812.137 449.086L267.881 448.7Z" fill="white"/>
<path fill-rule="evenodd" clip-rule="evenodd" d="M573.08 600.195L248.999 529.743L251.992 515.974L576.074 586.427L573.08 600.195Z" fill="white"/>
<path d="M293.755 330.422L465.629 140.089L915.515 470.717L673.698 746.014L293.755 330.422Z" fill="#F0932C"/>
<path fill-rule="evenodd" clip-rule="evenodd" d="M925.88 469.591L673.802 756.57L284.235 330.452L464.668 130.64L925.88 469.591ZM466.588 149.538L303.273 330.393L673.592 735.458L905.149 471.842L466.588 149.538Z" fill="white"/>
<path fill-rule="evenodd" clip-rule="evenodd" d="M699.9 529.743L488.543 346.566L497.771 335.918L709.129 519.095L699.9 529.743Z" fill="white"/>
<path d="M164.456 593.15L9.46019 388.838L418.085 8.39373L643.533 297.249L164.456 593.15Z" fill="#300729"/>
<path fill-rule="evenodd" clip-rule="evenodd" d="M418.912 -2L653.927 299.112L162.714 602.508L0 388.022L418.912 -2ZM18.9248 389.654L166.202 583.792L633.145 295.387L417.263 18.7879L18.9248 389.654Z" fill="white"/>
<path fill-rule="evenodd" clip-rule="evenodd" d="M418.088 276.114L88.7801 481.736L80.0785 470.266L410.62 264.165L418.088 276.114Z" fill="white"/>
</g>
<defs>
<clipPath id="clip0_346_11">
<rect width="3000" height="1000" fill="white"/>
</clipPath>
</defs>
</svg>
